 http://www.torrentday.com - Your Key To The Scene.

 
http://www.torrentday.com :  Clean RAR Scene Releases!


Enjoy =)

...................................NFO:....................................

.[img]http://leetleech.org/images/73107419611255789558.jpg[/img]

ooooooooooooo   88888   8888  ooooooooooooo    ooooooooo       ooooo    ooooo 
  888      '8   888  888  888   888      '8    '888   '88.      888      888  
  888           888  888  888   888             888    .d88'     888    888   
  888           888  888  888   888             888    888p       888  888    
  888           888  888  888   888             888ooo88P          888888     
  888ooooooo8   888  888  888   888ooooooo8     888   '88b          888       
  888       "   888  888  888   888             888    '88b         888       
  888           888  888  888   888             888     888         888       
  888           888  888  888   888             888     888         888       
  888      '8   888  888  888   888      '8     888     888         888       
ooooooooooooo   888  888  888 ooooooooooooo    o888o   o8880        888       
                                                                              
---------------------------------------------------------------------------
                          
                          Proud To Present!!!
                   Cario Time 2009 DVDRip XviD-Emery
                        Enjoy another Emery Rip

---------------------------------------------------------------------------
Movie Title..........: Cario Time   
IMDB.................: http://www.imdb.com/title/tt0896529/             
Rip Date.............: 3/13/10             
Release Date.........: 16 October 2009                     
Ripper...............: Emery
Source...............: R1 NTSC DVD [Thanks HNR]
Ratings..............: 6.7/10   402 votes 
Genre................: Drama | Romance 
Tagline..............: None
---------------------------------------------------------------------------
                          

                                  PLOT
                          

---------------------------------------------------------------------------
A romantic drama about a brief, unexpected love affair that catches
two people completely off-guard...

---------------------------------------------------------------------------
                          

                                Video Date
                          

---------------------------------------------------------------------------
General
Complete name                    : cairotime-emery.avi
Format                           : AVI
Format/Info                      : Audio Video Interleave
File size                        : 707 MiB
Duration                         : 1h 29mn
Overall bit rate                 : 1 102 Kbps
Writing library                  : VirtualDub build 32661/release

Video
ID                               : 0
Format                           : MPEG-4 Visual
Format profile                   : AdvancedSimple@L5
Format settings, BVOP            : Yes
Format settings, QPel            : No
Format settings, GMC             : No warppoints
Format settings, Matrix          : Default (H.263)
Muxing mode                      : Packed bitstream
Codec ID                         : XVID
Codec ID/Hint                    : XviD
Duration                         : 1h 29mn
Bit rate                         : 964 Kbps
Width                            : 704 pixels
Height                           : 304 pixels
Display aspect ratio             : 2.35:1
Frame rate                       : 23.976 fps
Resolution                       : 24 bits
Colorimetry                      : 4:2:0
Scan type                        : Progressive
Bits/(Pixel*Frame)               : 0.188
Stream size                      : 619 MiB (88%)
Writing library                  : XviD 1.2.1 (UTC 2008-12-04)

---------------------------------------------------------------------------
                          

                                Audio Data
                          

----------------------------------------------------------------------------
Audio
ID                               : 1
Format                           : MPEG Audio
Format version                   : Version 1
Format profile                   : Layer 3
Codec ID                         : 55
Codec ID/Hint                    : MP3
Duration                         : 1h 29mn
Bit rate mode                    : Constant
Bit rate                         : 128 Kbps
Channel(s)                       : 2 channels
Sampling rate                    : 48.0 KHz
Resolution                       : 16 bits
Stream size                      : 82.1 MiB (12%)
Alignment                        : Split accross interleaves
Interleave, duration             : 42 ms (1.00 video frame)
Interleave, preload duration     : 500 ms
---------------------------------------------------------------------------
                          

                                Notes
                          

---------------------------------------------------------------------------
Enjoy this encode of Cairo Time thanks HNRDVD for the source!
Did a little work to it, brightened it(source was too dark), added a 
sharpen filter. thats bout it...Also i am currently looking for anyone 
who wants to provide me with direct/line audio, R1 NTSC or PAL DVDs,
R5 Sources, and anything else useful. Email me at Emery@hush.me.

---------------------------------------------------------------------------
                          

                              Screenshots
                          

---------------------------------------------------------------------------
[img]http://leetleech.org/images/17599545273707133916.png[/img]
[img]http://leetleech.org/images/23058037654322078515.png[/img]
[img]http://leetleech.org/images/15445900385524845618.png[/img]
[img]http://leetleech.org/images/69014158831435113476.png[/img]

---------------------------------------------------------------------------
                          

                                Greets
                          

---------------------------------------------------------------------------
Shouts out X, Noir, and Blackjesus....
Special thanks to blazinseedboxes for providing me with the server!